<mxfile host="app.diagrams.net" agent="Mozilla/5.0 (Macintosh; Intel Mac OS X 10_15_7) AppleWebKit/537.36 (KHTML, like Gecko) Chrome/126.0.0.0 Safari/537.36" version="24.7.7">
  <diagram name="Page-1" id="z0bHODlmMGI18FyKUBx5">
    <mxGraphModel dx="2954" dy="1014" grid="1" gridSize="10" guides="1" tooltips="1" connect="1" arrows="1" fold="1" page="1" pageScale="1" pageWidth="827" pageHeight="1169" math="0" shadow="0">
      <root>
        <mxCell id="0" />
        <mxCell id="1" parent="0" />
        <mxCell id="L4aJN6HleYXrs2yaaKBV-1" value="" style="verticalLabelPosition=bottom;sketch=0;html=1;fillColor=#A153A0;strokeColor=#ffffff;verticalAlign=top;align=center;points=[[0,0.5,0],[0.125,0.25,0],[0.25,0,0],[0.5,0,0],[0.75,0,0],[0.875,0.25,0],[1,0.5,0],[0.875,0.75,0],[0.75,1,0],[0.5,1,0],[0.125,0.75,0]];pointerEvents=1;shape=mxgraph.cisco_safe.compositeIcon;bgIcon=mxgraph.cisco_safe.design.blank_device;resIcon=mxgraph.cisco_safe.design.sensor;" vertex="1" parent="1">
          <mxGeometry x="50" y="320" width="50" height="45" as="geometry" />
        </mxCell>
        <mxCell id="L4aJN6HleYXrs2yaaKBV-2" value="" style="sketch=0;aspect=fixed;pointerEvents=1;shadow=0;dashed=0;html=1;strokeColor=none;labelPosition=center;verticalLabelPosition=bottom;verticalAlign=top;align=center;fillColor=#00188D;shape=mxgraph.mscae.enterprise.router" vertex="1" parent="1">
          <mxGeometry x="240" y="320" width="50" height="39" as="geometry" />
        </mxCell>
        <mxCell id="L4aJN6HleYXrs2yaaKBV-3" value="" style="shape=image;verticalLabelPosition=bottom;labelBackgroundColor=default;verticalAlign=top;aspect=fixed;imageAspect=0;image=data:image/svg+xml,PHN2ZyB4bWxuczp4bGluaz0iaHR0cDovL3d3dy53My5vcmcvMTk5OS94bGluayIgeG1sbnM9Imh0dHA6Ly93d3cudzMub3JnLzIwMDAvc3ZnIiB4bWw6c3BhY2U9InByZXNlcnZlIiB2aWV3Qm94PSIyMjUuNiAwIDc5OS41IDc5OS41IiB5PSIwcHgiIHg9IjBweCIgaWQ9IkxheWVyXzEiIHZlcnNpb249IjEuMSI+JiN4YTs8Y2lyY2xlIHI9IjQwMCIgY3k9IjQwMCIgY3g9IjYyNS42IiBmaWxsPSIjRkZGRkZGIi8+JiN4YTs8Zz4mI3hhOwk8cGF0aCBkPSJNODQwLjUsMzg0LjJjMS4yLDE0LjctMy40LDI4LjYtMTIuOCwzOS4yYy0xMC4xLDExLjMtMjUuMiwxNy41LTQyLjEsMTcuNUg0MTguOWwwLDBjLTAuMiwwLTAuMywwLTAuNSwwJiMxMDsmIzk7JiM5O2gtMC4yaC0wLjNsMCwwYy0xNC45LTAuMi0yOC45LTYtMzkuNC0xNi40Yy0xMS4xLTExLTE3LjEtMjUuNy0xNy4zLTQxLjJsMCwwYzAtMjguOSwxOS43LTUyLjQsNDYuNS01Ni44JiMxMDsmIzk7JiM5O2MzLjYtMjQuMSwyNC42LTQzLjgsNTAuNy00Ny45YzEuNS05LjYsNi4yLTE4LjgsMTMuNS0yNi40YzEwLjYtMTEsMjUtMTcuMSwzOS43LTE3LjFjMTksMCwzNS42LDEwLjMsNDQuNSwyNS43JiMxMDsmIzk7JiM5O2MxMC40LTM3LjMsNDQuNy02NC43LDg1LjItNjQuN2M0NC4zLDAsODEuMywzMi45LDg3LjQsNzUuNmMyMi4yLTE2LjYsNTEuOS0xNS4xLDc0LjEsNS44bC0yLjQtMi4xYzE3LjgsMTQuNCwyNCwzMy45LDIzLjEsNTAuMyYjMTA7JiM5OyYjOTtjLTAuNSw5LjgtMy44LDE4LjMtOS42LDI1LjNjNS42LDEuOSwxMC4zLDUuMSwxNC43LDkuNmM2LjIsNi4yLDEwLjQsMTMuOSwxMS42LDIyLjRsMCwwQzg0MC40LDM4My4zLDg0MC40LDM4My43LDg0MC41LDM4NC4yJiMxMDsmIzk7JiM5O0M4NDAuNSwzODMuNyw4NDAuNSwzODMuOCw4NDAuNSwzODQuMnogTTg2OC4xLDI0Ni4xYy0xMy0xNy42LTMyLjMtMzAuNi01My42LTM2LjFjLTQuOC0xLTkuOCwyLjItMTAuOCw2LjhjLTEuOSw0LjgsMS4yLDExLDYuMywxMiYjMTA7JiM5OyYjOTtjMjEuNCw1LjYsMzkuOSwyMC43LDQ5LjYsNDAuNmM4LDE2LjMsMTAuMSwzNS40LDUuNiw1M2MtMS4yLDUsMi40LDEwLjMsNy41LDExYzQuNiwxLjQsOS44LTEuNCwxMS4zLTUuOCYjMTA7JiM5OyYjOTtDODkxLjIsMzAwLDg4NS4yLDI2OSw4NjguMSwyNDYuMXogTTgwNywyNDMuM2MtNy40LTEuNC0xMyw3LjctOS44LDE0YzEuMiwyLjcsMy45LDQuNiw2LjgsNS4zYzExLjEsMi45LDIwLjksMTAuNiwyNiwyMC45JiMxMDsmIzk7JiM5O2M0LjYsOS4xLDUuNiwxOS43LDMuMSwyOS40Yy0xLjQsNSwyLjIsMTAuNCw3LjQsMTEuM2M0LjYsMS40LDEwLjEtMS40LDExLjUtNi4yYzQuOC0xNy41LDEuMi0zNy05LjQtNTEuNSYjMTA7JiM5OyYjOTtDODM0LDI1NSw4MjEuMiwyNDYuMSw4MDcsMjQzLjN6IiBmaWxsPSIjMEQ4M0QwIi8+JiN4YTsJPGc+JiN4YTsJCTxnPiYjeGE7CQkJPHBhdGggZD0iTTM3Ni42LDYwMi45aC05LjJ2LTQwLjZoOS4ybDE2LjMsMjUuM2wwLDB2LTI1LjNoOS4ydjQwLjZoLTkuMmwtMTYuMy0yNS4zbDAsMFY2MDIuOXoiIGZpbGw9IiMzNjM2MzYiLz4mI3hhOwkJCTxwYXRoIGQ9Ik00NzMuMyw1NzAuMmgtMTR2Ny45aDEzLjN2OC4yaC0xMy4zdjguMmgxNHY4LjJINDUwdi00MC42aDIzLjNWNTcwLjJ6IiBmaWxsPSIjMzYzNjM2Ii8+JiN4YTsJCQk8cGF0aCBkPSJNNTE3LjgsNTYyLjFoMjguNnY4LjJoLTkuNnYzMi4zaC05LjJ2LTMyLjNINTE4TDUxNy44LDU2Mi4xTDUxNy44LDU2Mi4xeiIgZmlsbD0iIzM2MzYzNiIvPiYjeGE7CQkJPHBhdGggZD0iTTYxNi41LDU4MC4xbC02LjUsMjIuOGgtMTAuM2wtMTEuNC00MC42aDEwLjFsNi44LDI4LjFoMC4ybDcuNC0yOC4xaDYuOGw3LjQsMjguMWgwLjdsNi44LTI4LjFoMTAuMyYjMTA7JiM5OyYjOTsmIzk7JiM5O2wtMTEuNSw0MC42SDYyM0w2MTYuNSw1ODAuMXoiIGZpbGw9IiMzNjM2MzYiLz4mI3hhOwkJCTxwYXRoIGQ9Ik03MDYsNTYxLjVjMTEuMywwLDIwLjUsOS4yLDIwLjUsMjAuOWMwLDEyLTguNywyMS0yMC41LDIxYy0xMi4xLDAtMjAuNS05LjItMjAuNS0yMSYjMTA7JiM5OyYjOTsmIzk7JiM5O0M2ODUuNSw1NzAuNSw2OTQuNyw1NjEuNSw3MDYsNTYxLjV6IE03MDYsNTk0LjVjNy40LDAsMTAuNC02LDEwLjQtMTIuMWMwLTUuOC0zLjQtMTIuMS0xMC40LTEyLjFjLTcuMiwwLTEwLjQsNi0xMC40LDEyLjEmIzEwOyYjOTsmIzk7JiM5OyYjOTtTNjk4LjUsNTk0LjUsNzA2LDU5NC41eiIgZmlsbD0iIzM2MzYzNiIvPiYjeGE7CQkJPHBhdGggZD0iTTc4Nyw1NjIuMWM3LjUsMCwxMy4zLDQuMSwxMy4zLDEyLjFjMCw2LTMuNCwxMC4zLTguNCwxMS42bDE0LDE2LjloLTExLjZMNzgyLDU4Ni42djE2LjFoLTkuMnYtNDAuNkg3ODcmIzEwOyYjOTsmIzk7JiM5OyYjOTtMNzg3LDU2Mi4xeiBNNzgyLjcsNTgwLjNjMy42LDAsNy41LTAuMiw3LjUtNS41cy00LjEtNS41LTcuNS01LjVoLTF2MTAuNmgxVjU4MC4zeiIgZmlsbD0iIzM2MzYzNiIvPiYjeGE7CQkJPHBhdGggZD0iTTg3My43LDYwMi45bC0xNS4xLTE3LjN2MTcuM2gtOS4ydi00MC42aDkuMnYxNi44bDE0LTE2LjhoMTEuM2wtMTYuNiwxOS4ybDE4LjgsMjEuNEw4NzMuNyw2MDIuOSYjMTA7JiM5OyYjOTsmIzk7JiM5O0w4NzMuNyw2MDIuOXoiIGZpbGw9IiMzNjM2MzYiLz4mI3hhOwkJPC9nPiYjeGE7CQk8Zz4mI3hhOwkJCTxwYXRoIGQ9Ik0zNjEuNCw0NzEuM2g0Ny40djEzLjVoLTE2LjF2NTMuOWgtMTUuNHYtNTMuOWgtMTYuMUwzNjEuNCw0NzEuM0wzNjEuNCw0NzEuM3oiIGZpbGw9IiMzNjM2MzYiLz4mI3hhOwkJCTxwYXRoIGQ9Ik00MzMuMSw1MzguOWgtMTUuNHYtNjcuNmgxNS40djI3aDIxLjd2LTI3aDE1LjR2NjcuNmgtMTUuNHYtMjcuMmgtMjEuN1Y1MzguOXoiIGZpbGw9IiMzNjM2MzYiLz4mI3hhOwkJCTxwYXRoIGQ9Ik01MjEuOSw0ODVoLTIzLjF2MTMuM0g1MjF2MTMuNWgtMjIuMnYxMy41aDIzLjN2MTMuNWgtMzguOHYtNjcuNkg1MjJMNTIxLjksNDg1TDUyMS45LDQ4NXoiIGZpbGw9IiMzNjM2MzYiLz4mI3hhOwkJCTxwYXRoIGQ9Ik01NTEuNSw0NzEuM2g0Ny40djEzLjVoLTE2LjF2NTMuOWgtMTUuNHYtNTMuOWgtMTYuMUw1NTEuNSw0NzEuM0w1NTEuNSw0NzEuM3oiIGZpbGw9IiMzNjM2MzYiLz4mI3hhOwkJCTxwYXRoIGQ9Ik02MjMuMiw1MzguOWgtMTUuNHYtNjcuNmgxNS40djI3aDIxLjd2LTI3aDE1LjR2NjcuNmgtMTUuNHYtMjcuMmgtMjEuN1Y1MzguOUw2MjMuMiw1MzguOXoiIGZpbGw9IiMzNjM2MzYiLz4mI3hhOwkJCTxwYXRoIGQ9Ik02ODguOSw1MzguOWgtMTUuNHYtNjcuNmgxNS40VjUzOC45eiIgZmlsbD0iIzM2MzYzNiIvPiYjeGE7CQkJPHBhdGggZD0iTTcxNy4zLDUzOC45aC0xNS40di02Ny42aDE1LjRsMjYuNyw0MS44aDAuMnYtNDEuOGgxNS40djY3LjZoLTE1LjRsLTI2LjctNDEuOGgtMC4yVjUzOC45TDcxNy4zLDUzOC45eiIgZmlsbD0iIzM2MzYzNiIvPiYjeGE7CQkJPHBhdGggZD0iTTgzMy43LDUxNS42Yy0zLjgsMTcuMS0xOCwyNC41LTMxLjEsMjQuNWMtMTguMSwwLTMyLjktMTUuNy0zMi45LTM0LjljMC0xOS41LDE0LTM0LjksMzIuOS0zNC45JiMxMDsmIzk7JiM5OyYjOTsmIzk7YzEyLDAsMjAsNC40LDI2LDExLjVsLTEwLjEsMTEuMWMtMy45LTYuMy05LjEtOC42LTE1LjEtOC42Yy05LjQsMC0xNy4xLDkuNC0xNy4xLDIxYzAsMTEuNSw3LjcsMjAuNywxNy4xLDIwLjcmIzEwOyYjOTsmIzk7JiM5OyYjOTtjNy40LDAsMTQuNy00LjgsMTQuNy0xM2gtMTUuNHYtMTJoMzEuMXYxNC41TDgzMy43LDUxNS42TDgzMy43LDUxNS42eiIgZmlsbD0iIzM2MzYzNiIvPiYjeGE7CQkJPHBhdGggZD0iTTg4OC4xLDQ3Ni42bC02LjMsMTIuM2MwLDAtNi43LTQuNi0xMy41LTQuNmMtNS4zLDAtNy45LDIuMi03LjksNnM2LjUsNi41LDE0LDkuOCYjMTA7JiM5OyYjOTsmIzk7JiM5O2M3LjUsMy4xLDE1LjksOS42LDE1LjksMTguNWMwLDE2LjEtMTIuMywyMS43LTI1LjUsMjEuN2MtMTUuOSwwLTI1LjMtOS4xLTI1LjMtOS4xbDcuNy0xM2MwLDAsOS4xLDcuNSwxNi42LDcuNSYjMTA7JiM5OyYjOTsmIzk7JiM5O2MzLjQsMCw5LjgtMC4zLDkuOC02LjdjMC00LjgtNy4yLTcuMi0xNS4yLTExLjFjLTguMi0zLjktMTIuOC0xMC4zLTEyLjgtMTcuM2MwLTEyLjUsMTEuMS0yMC43LDIxLjktMjAuNyYjMTA7JiM5OyYjOTsmIzk7JiM5O0M4NzkuNCw0NzAuMSw4ODguMSw0NzYuNiw4ODguMSw0NzYuNnoiIGZpbGw9IiMzNjM2MzYiLz4mI3hhOwkJPC9nPiYjeGE7CTwvZz4mI3hhOzwvZz4mI3hhOzwvc3ZnPg==;" vertex="1" parent="1">
          <mxGeometry x="450" y="280" width="140" height="140" as="geometry" />
        </mxCell>
      </root>
    </mxGraphModel>
  </diagram>
</mxfile>
